<mxfile host="app.diagrams.net" modified="2023-11-26T18:54:55.167Z" agent="Mozilla/5.0 (Windows NT 10.0; Win64; x64) AppleWebKit/537.36 (KHTML, like Gecko) Chrome/119.0.0.0 Safari/537.36" etag="BgsbV8jtCsBnouhaUnYE" version="22.1.4" type="device">
  <diagram name="PÃ¡gina-1" id="eOC91fiS8NoLk1GNi1MO">
    <mxGraphModel dx="1434" dy="758" grid="1" gridSize="10" guides="1" tooltips="1" connect="1" arrows="1" fold="1" page="1" pageScale="1" pageWidth="827" pageHeight="1169" math="0" shadow="0">
      <root>
        <mxCell id="0" />
        <mxCell id="1" parent="0" />
        <mxCell id="ydv59CbYz5qmOlgjpQZS-1" value="load_params()" style="rounded=1;whiteSpace=wrap;html=1;fillColor=#dae8fc;strokeColor=#6c8ebf;" vertex="1" parent="1">
          <mxGeometry x="420" y="120" width="90" height="30" as="geometry" />
        </mxCell>
        <mxCell id="ydv59CbYz5qmOlgjpQZS-4" value="" style="rounded=1;whiteSpace=wrap;html=1;fontSize=12;glass=0;strokeWidth=1;shadow=0;arcSize=8;" vertex="1" parent="1">
          <mxGeometry x="298.75" y="220" width="220" height="180" as="geometry" />
        </mxCell>
        <mxCell id="ydv59CbYz5qmOlgjpQZS-5" value="No" style="rounded=0;html=1;jettySize=auto;orthogonalLoop=1;fontSize=11;endArrow=block;endFill=0;endSize=8;strokeWidth=1;shadow=0;labelBackgroundColor=none;edgeStyle=orthogonalEdgeStyle;exitX=0;exitY=0.5;exitDx=0;exitDy=0;entryX=1;entryY=0.5;entryDx=0;entryDy=0;" edge="1" parent="1" source="ydv59CbYz5qmOlgjpQZS-10" target="ydv59CbYz5qmOlgjpQZS-12">
          <mxGeometry x="-0.4286" y="15" relative="1" as="geometry">
            <mxPoint as="offset" />
          </mxGeometry>
        </mxCell>
        <mxCell id="ydv59CbYz5qmOlgjpQZS-7" style="edgeStyle=orthogonalEdgeStyle;rounded=0;orthogonalLoop=1;jettySize=auto;html=1;exitX=0.5;exitY=1;exitDx=0;exitDy=0;" edge="1" parent="1" source="ydv59CbYz5qmOlgjpQZS-8" target="ydv59CbYz5qmOlgjpQZS-9">
          <mxGeometry relative="1" as="geometry" />
        </mxCell>
        <mxCell id="ydv59CbYz5qmOlgjpQZS-8" value="ApepBuilder.build()" style="rounded=1;whiteSpace=wrap;html=1;fontSize=12;glass=0;strokeWidth=1;shadow=0;" vertex="1" parent="1">
          <mxGeometry x="328.75" y="270" width="170" height="30" as="geometry" />
        </mxCell>
        <mxCell id="ydv59CbYz5qmOlgjpQZS-9" value="ApepFlow.execute()" style="rounded=1;whiteSpace=wrap;html=1;fontSize=12;glass=0;strokeWidth=1;shadow=0;" vertex="1" parent="1">
          <mxGeometry x="328.75" y="340" width="170" height="30" as="geometry" />
        </mxCell>
        <mxCell id="ydv59CbYz5qmOlgjpQZS-19" style="edgeStyle=orthogonalEdgeStyle;rounded=0;orthogonalLoop=1;jettySize=auto;html=1;exitX=0.5;exitY=1;exitDx=0;exitDy=0;" edge="1" parent="1" source="ydv59CbYz5qmOlgjpQZS-10" target="ydv59CbYz5qmOlgjpQZS-18">
          <mxGeometry relative="1" as="geometry" />
        </mxCell>
        <mxCell id="ydv59CbYz5qmOlgjpQZS-10" value="ApepOutput.metadata.status &lt;br&gt;isOk?" style="rhombus;whiteSpace=wrap;html=1;shadow=0;fontFamily=Helvetica;fontSize=12;align=center;strokeWidth=1;spacing=6;spacingTop=-4;" vertex="1" parent="1">
          <mxGeometry x="343.75" y="560" width="140" height="80" as="geometry" />
        </mxCell>
        <mxCell id="ydv59CbYz5qmOlgjpQZS-11" value="ApepOutput" style="rounded=0;html=1;jettySize=auto;orthogonalLoop=1;fontSize=11;endArrow=block;endFill=0;endSize=8;strokeWidth=1;shadow=0;labelBackgroundColor=none;edgeStyle=orthogonalEdgeStyle;exitX=0.5;exitY=1;exitDx=0;exitDy=0;entryX=0.5;entryY=0;entryDx=0;entryDy=0;" edge="1" parent="1" source="ydv59CbYz5qmOlgjpQZS-9" target="ydv59CbYz5qmOlgjpQZS-16">
          <mxGeometry x="0.1789" y="35" relative="1" as="geometry">
            <mxPoint as="offset" />
            <mxPoint x="426.75" y="430" as="sourcePoint" />
            <mxPoint x="413.75" y="470" as="targetPoint" />
          </mxGeometry>
        </mxCell>
        <mxCell id="ydv59CbYz5qmOlgjpQZS-30" style="edgeStyle=orthogonalEdgeStyle;rounded=0;orthogonalLoop=1;jettySize=auto;html=1;exitX=0.5;exitY=1;exitDx=0;exitDy=0;entryX=0.5;entryY=0;entryDx=0;entryDy=0;" edge="1" parent="1" source="ydv59CbYz5qmOlgjpQZS-12" target="ydv59CbYz5qmOlgjpQZS-28">
          <mxGeometry relative="1" as="geometry" />
        </mxCell>
        <mxCell id="ydv59CbYz5qmOlgjpQZS-12" value="ApepFlow.callback()" style="rounded=1;whiteSpace=wrap;html=1;fontSize=12;glass=0;strokeWidth=1;shadow=0;" vertex="1" parent="1">
          <mxGeometry x="130" y="585" width="160" height="30" as="geometry" />
        </mxCell>
        <mxCell id="ydv59CbYz5qmOlgjpQZS-13" value="&lt;font style=&quot;&quot;&gt;&lt;b style=&quot;font-size: 14px;&quot;&gt;ApepFlow&lt;/b&gt;&lt;font style=&quot;font-size: 12px;&quot;&gt; (each)&lt;/font&gt;&lt;/font&gt;" style="text;html=1;strokeColor=none;fillColor=none;align=center;verticalAlign=middle;whiteSpace=wrap;rounded=0;" vertex="1" parent="1">
          <mxGeometry x="347.5" y="230" width="132.5" height="30" as="geometry" />
        </mxCell>
        <mxCell id="ydv59CbYz5qmOlgjpQZS-14" value="&lt;b&gt;ApepInput&lt;/b&gt;" style="rounded=0;html=1;jettySize=auto;orthogonalLoop=1;fontSize=11;endArrow=block;endFill=1;endSize=8;strokeWidth=3;shadow=0;labelBackgroundColor=default;edgeStyle=orthogonalEdgeStyle;exitX=0.5;exitY=1;exitDx=0;exitDy=0;entryX=0.5;entryY=0;entryDx=0;entryDy=0;" edge="1" parent="1" target="ydv59CbYz5qmOlgjpQZS-4" source="ydv59CbYz5qmOlgjpQZS-20">
          <mxGeometry x="0.1111" y="30" relative="1" as="geometry">
            <mxPoint as="offset" />
            <mxPoint x="390" y="110" as="sourcePoint" />
            <mxPoint x="385" y="260" as="targetPoint" />
          </mxGeometry>
        </mxCell>
        <mxCell id="ydv59CbYz5qmOlgjpQZS-15" value="ApepParams" style="shape=document;whiteSpace=wrap;html=1;boundedLbl=1;fillColor=#dae8fc;strokeColor=#6c8ebf;dashed=1;dashPattern=1 4;strokeWidth=0;" vertex="1" parent="1">
          <mxGeometry x="498.75" y="210" width="120" height="30" as="geometry" />
        </mxCell>
        <mxCell id="ydv59CbYz5qmOlgjpQZS-17" style="edgeStyle=orthogonalEdgeStyle;rounded=0;orthogonalLoop=1;jettySize=auto;html=1;exitX=0.5;exitY=1;exitDx=0;exitDy=0;" edge="1" parent="1" source="ydv59CbYz5qmOlgjpQZS-16" target="ydv59CbYz5qmOlgjpQZS-10">
          <mxGeometry relative="1" as="geometry" />
        </mxCell>
        <mxCell id="ydv59CbYz5qmOlgjpQZS-16" value="ApepLogger.log(output)" style="rounded=1;whiteSpace=wrap;html=1;" vertex="1" parent="1">
          <mxGeometry x="333.75" y="460" width="160" height="60" as="geometry" />
        </mxCell>
        <mxCell id="ydv59CbYz5qmOlgjpQZS-23" style="edgeStyle=orthogonalEdgeStyle;rounded=0;orthogonalLoop=1;jettySize=auto;html=1;exitX=0.5;exitY=1;exitDx=0;exitDy=0;entryX=0.5;entryY=0;entryDx=0;entryDy=0;" edge="1" parent="1" source="ydv59CbYz5qmOlgjpQZS-18" target="ydv59CbYz5qmOlgjpQZS-22">
          <mxGeometry relative="1" as="geometry" />
        </mxCell>
        <mxCell id="ydv59CbYz5qmOlgjpQZS-18" value="ApepDataBuffer.add_results&lt;span style=&quot;background-color: initial;&quot;&gt;(data)&lt;/span&gt;" style="rounded=1;whiteSpace=wrap;html=1;" vertex="1" parent="1">
          <mxGeometry x="296.25" y="690" width="235" height="50" as="geometry" />
        </mxCell>
        <mxCell id="ydv59CbYz5qmOlgjpQZS-20" value="Trigger" style="ellipse;whiteSpace=wrap;html=1;" vertex="1" parent="1">
          <mxGeometry x="363.75" y="20" width="90" height="80" as="geometry" />
        </mxCell>
        <mxCell id="ydv59CbYz5qmOlgjpQZS-26" style="edgeStyle=orthogonalEdgeStyle;rounded=0;orthogonalLoop=1;jettySize=auto;html=1;exitX=1;exitY=0.5;exitDx=0;exitDy=0;entryX=0.5;entryY=0;entryDx=0;entryDy=0;endArrow=block;endFill=1;endSize=8;strokeWidth=3;shadow=0;" edge="1" parent="1" source="ydv59CbYz5qmOlgjpQZS-21" target="ydv59CbYz5qmOlgjpQZS-4">
          <mxGeometry relative="1" as="geometry">
            <Array as="points">
              <mxPoint x="760" y="880" />
              <mxPoint x="760" y="180" />
              <mxPoint x="409" y="180" />
            </Array>
          </mxGeometry>
        </mxCell>
        <mxCell id="ydv59CbYz5qmOlgjpQZS-21" value="&lt;i style=&quot;font-size: 14px;&quot;&gt;for ApepData in ApepDataBuffer:&lt;br&gt;&lt;span style=&quot;white-space: pre;&quot;&gt;&#x9;&lt;/span&gt;ApepInput(ApepData, mapper)&lt;/i&gt;" style="rounded=1;whiteSpace=wrap;html=1;align=left;" vertex="1" parent="1">
          <mxGeometry x="301.25" y="850" width="230" height="60" as="geometry" />
        </mxCell>
        <mxCell id="ydv59CbYz5qmOlgjpQZS-24" style="edgeStyle=orthogonalEdgeStyle;rounded=0;orthogonalLoop=1;jettySize=auto;html=1;exitX=0.5;exitY=1;exitDx=0;exitDy=0;entryX=0.5;entryY=0;entryDx=0;entryDy=0;" edge="1" parent="1" source="ydv59CbYz5qmOlgjpQZS-22" target="ydv59CbYz5qmOlgjpQZS-21">
          <mxGeometry relative="1" as="geometry" />
        </mxCell>
        <mxCell id="ydv59CbYz5qmOlgjpQZS-29" style="edgeStyle=orthogonalEdgeStyle;rounded=0;orthogonalLoop=1;jettySize=auto;html=1;exitX=0;exitY=0.5;exitDx=0;exitDy=0;entryX=1;entryY=0.5;entryDx=0;entryDy=0;" edge="1" parent="1" source="ydv59CbYz5qmOlgjpQZS-22" target="ydv59CbYz5qmOlgjpQZS-28">
          <mxGeometry relative="1" as="geometry" />
        </mxCell>
        <mxCell id="ydv59CbYz5qmOlgjpQZS-22" value="flow.next?" style="rhombus;whiteSpace=wrap;html=1;shadow=0;fontFamily=Helvetica;fontSize=12;align=center;strokeWidth=1;spacing=6;spacingTop=-4;" vertex="1" parent="1">
          <mxGeometry x="376.25" y="770" width="80" height="60" as="geometry" />
        </mxCell>
        <mxCell id="ydv59CbYz5qmOlgjpQZS-28" value="end" style="ellipse;whiteSpace=wrap;html=1;" vertex="1" parent="1">
          <mxGeometry x="185" y="775" width="50" height="50" as="geometry" />
        </mxCell>
        <mxCell id="ydv59CbYz5qmOlgjpQZS-32" value="Se lanzan tanto flujos paralelos como se permita o se ejecuta secuencialmente tantas veces como sea necesario. Todos los resultados de los distintos flows del step N-1 se almacenan en el ApepDataBuffer antes de lanzar el step N" style="rounded=0;whiteSpace=wrap;html=1;align=left;fontSize=12;fillColor=#f5f5f5;fontColor=#333333;strokeColor=#666666;fontStyle=1" vertex="1" parent="1">
          <mxGeometry x="10" y="220" width="210" height="140" as="geometry" />
        </mxCell>
      </root>
    </mxGraphModel>
  </diagram>
</mxfile>
